<svg xmlns="http://www.w3.org/2000/svg"  viewBox="0 0 340 340" width="125px" height="125px"><path fill="#6d68b7" d="M64.854,80.885c-7.26-5.974-28.262-21.2-52.319-19.841h0S10.319,87.761,34.221,112a1.924,1.924,0,0,0,3.159-.645c1.758-4.435,6.839-11.651,20.385-4.38a27.383,27.383,0,0,1-2.218-8.289h0c-.5-5.254.821-11.6,8.792-14.539A1.909,1.909,0,0,0,64.854,80.885Z"/><path fill="#3c3c4f" d="M200.873,159.148l.969-12.071a22.828,22.828,0,0,0-6.685-18.043l-.854-.847a22.863,22.863,0,0,1-6.759-16.107,150.133,150.133,0,0,1,11.14-57.724,25.345,25.345,0,0,0,1.6-14.28,57.216,57.216,0,0,0-5.17-15.746s-39.638,58.769-32.658,148Z"/><path fill="#3c3c4f" d="M191.427,294.75s-2.191,9.142-10.527,13.445c0,0,16.176,2.183,16.714,21.8H178.708L128.736,313.63l33.722-38.946Z"/><path fill="#3c3c4f" d="M257.952,280.122a129.757,129.757,0,0,0,17.064,18.964s28.145,3.733,26.134,30.9H284.6l-53.24-44.4Z"/><path fill="#fc877b" d="M327.444,77.684c5.087,8.721,8.975,22.132,7.1,42.394-1.9,20.459-8.185,29.809-13.243,42.783-41.692,43.649-64.068,123.006-118.606,122.68-55.626-4.247-97.5,21.477-97.5,21.477S36.1,344.052,9.038,268.753c-12.616-35.106,7.3-82.333,35.134-118.027A48.791,48.791,0,0,0,41.7,87.9q-.751-.82-1.552-1.644S66.167,90.21,69.87,123.327a66.323,66.323,0,0,1-5.124,33.392c-2.965,6.932-7.081,17.692-12.216,26.446-11.195,19.087-15.1,42.266-9.487,62.319a19.5,19.5,0,0,0,33.039,8.025,138.317,138.317,0,0,0,17.531-23.993s43.98-86.644,126.41-73.476a49.16,49.16,0,0,1,13.43,4.266c20.837,9.931,45.337.5,53.505-21.09,6.392-6.042,10-14.034,9.171-25.142C299.313,94.487,310.271,82.892,327.444,77.684Z"/><path fill="#bc524c" d="M327.432,77.69c-6.868-11.765-15.913-15.008-15.913-15.008-14.333,1.6-16.907,9.246-24.757,22.047,5.854,11.7,8.758,21.33,9.358,29.345.331.128.658.266.978.424a64.349,64.349,0,0,0,14.041,5.147,29.422,29.422,0,0,0,0-24.867A48.108,48.108,0,0,0,327.432,77.69Z"/><path fill="#bc524c" d="M21.887,255.178c-8-32.235-3.759-57.723,2.894-75.181C8.284,209.8-.35,242.63,9.038,268.753c27.059,75.3,96.151,38.265,96.151,38.265a109.378,109.378,0,0,1,10.06-5.215l7.008-10.912S39.333,325.454,21.887,255.178Z"/><path fill="#ffe9d3" d="M305.96,212.806c4.623-22.055,9.866-35.912,15.338-49.945.745-15.521-.252-35.493-8.007-49.514-13.627-3.963-24.831-5.258-29.48.671a22.564,22.564,0,0,1,1.39,1.97,25.661,25.661,0,0,1,2.135,22.193c-.122.348-.248.692-.378,1.035,0,0-3.56,16.284-20.38,37.243-11.006,13.714-11.806,28.4-15.542,50.576,0,0-3.614,48.483-48.344,58.512,4.123.315,8.32.788,12.583,1.455C277.048,296.665,297.063,255.253,305.96,212.806Z"/><path fill="#3c3c4f" d="M279.822,25.4s14.514,3.041,11.749,16.172S277.2,60.537,277.2,60.537s25.444.83,30.42-22.115C307.616,38.422,305.065,19.726,279.822,25.4Z"/><path fill="#dbaf92" d="M313.287,113.349a32.846,32.846,0,0,0-12.307-12.991c-8.04-4.607-14.573-5.976-19.845-5.486a134.408,134.408,0,0,0-5.8,13.091,17.951,17.951,0,0,1,8.461,6.063c2.461-.154,4.631-.4,6.311-.639A12,12,0,0,1,297.1,114.5a69.364,69.364,0,0,0,12.338,4.727,2.039,2.039,0,0,0,2.42-1.206A28.206,28.206,0,0,0,313.287,113.349Z"/><path fill="#6d68b7" d="M284.6,56.7a97.831,97.831,0,0,0,10.34-7.327c2.951-.408,4.358-1.862,4.526-4.156a33.882,33.882,0,0,0,4.43-5.588,5.592,5.592,0,0,0,2.734-6.2,25.336,25.336,0,0,0-.372-13.308,13.452,13.452,0,0,0-4.732-6.736s25.442,1.76,25.785,26.593a13.819,13.819,0,0,0-.622,7.495,40.431,40.431,0,0,1-11.45,21.067c-2.23.077-3.847,1.7-5,4.5a71.368,71.368,0,0,1-19.5,10.983Z"/><path fill="#fc877b" d="M223.85,86.164a60.216,60.216,0,0,1,2.858-5.692,24.7,24.7,0,0,1,16.8-11.98c10.5-2,27.363-3.245,41.1-11.794,0,0,7.683,2.328,7.683,19.847,0,0,6.5,3.346,20.865,2.559,0,0-3.937,11.022-13.779,15.55,0,0,9.448,4.921,9.055,18.109l-14.37-6.89a65.947,65.947,0,0,1-34.112-.151,48.157,48.157,0,0,1-9.514-3.675c-4.074-2.078-12.232-5.691-20.61-6.235A6.925,6.925,0,0,1,223.85,86.164Z"/><path fill="#fc877b" d="M115.765,251.791s1.394.009,3.747.25c24.277,14.944,51.187,29.934,44.287,44.323a18.311,18.311,0,0,1-4.966,5.99,56.676,56.676,0,0,1-20.205,8.993s19.32-.213,30.893,3.782a13.752,13.752,0,0,1,9.283,13.944q-.036.45-.1.918H93.749s-7.056-17.515,5.645-27.112,22.863-11.988,22.863-11.988Z"/><path fill="#bc524c" d="M127.8,186.1a171.6,171.6,0,0,0-23.633,26.68c1.99,15.566,19.675,63.211,59.636,83.588a19.871,19.871,0,0,0,2.914-9.656,168.574,168.574,0,0,1,35.979-1.167,53.326,53.326,0,0,0,10.283-.931Z"/><path fill="#ffe9d3" d="M121.787,56.7s-7.9,46.486,39.586,62.559a13.825,13.825,0,0,1,9.278,14.776c-2.589,21.159-4.888,66.052,16.349,95.469a24.939,24.939,0,0,0,5.039,5.187c0,14.844-18.041,23.957-44.225-2.656-22.431-36.271-35.471-79.34-35.027-132.171A342.962,342.962,0,0,1,121.787,56.7Z"/><path fill="#dbaf92" d="M192.2,234.8c-9.695,5.808-34.1,13.782-54.793-34.551A321.744,321.744,0,0,1,112.791,99.863c-21.677,155.81,97.648,198.621,97.648,198.621l4.324-59.977q-1.251.382-2.437.658A24.271,24.271,0,0,1,192.2,234.8Z"/><path fill="#fc877b" d="M178.8,293.334c-33.471-18.735-68.911-54.645-76.788-123.343-14.626-127.555,17.626-160,17.626-160s9,11.866,6,36.618c0,0-41.543,158.074,57.492,230.636C191.427,285.074,188.023,295.435,178.8,293.334Z"/><path fill="#dbaf92" d="M284.634,264.621c-10.654,5.277-28.6,10.422-49.226.923a57.146,57.146,0,0,1-32.716,20c4.123.315,8.32.788,12.583,1.455C249.444,292.347,270.832,282.061,284.634,264.621Z"/><path fill="#bc524c" d="M178.68,293.264c33.517,18.8,65.1,20.366,65.1,20.366-7.876-16.361-27-30-27-30l-21.723,1.511q-6.275-3.748-11.914-7.9C184.8,282.282,185,288.641,178.68,293.264Z"/><path fill="#fc877b" d="M218.586,233.456s9.888,19.39,5.974,42.062c0,0,20.422,11.436,34.441,28.155a15.963,15.963,0,0,0,7.481,5c6.552,2.041,18.132,7.59,18.121,21.323H260.219a14.779,14.779,0,0,1-11.6-5.64c-7.547-9.562-25.477-28.919-53.565-39.213a61,61,0,0,1-3.59-22.988,13.773,13.773,0,0,1,7.225-11.69C204.788,247.191,213.809,241.356,218.586,233.456Z"/><path fill="#3c3c4f" d="M322.319,65.7C340.433,41.1,328.3,11.879,301.77,9.893a3.514,3.514,0,0,0-2.282,6.333,9.989,9.989,0,0,1,3.39,4.791,30.7,30.7,0,0,1,.874,4.547c-4.665-3.731-12.309-6.362-24.7-3.576a3.514,3.514,0,0,0,.036,6.838c19.047,5.064,4.164,25.1-3.362,28.528-8.847,3.794-18.355,5.321-26.333,6.593-10.867,1.15-20.15,4.975-25.725,14.787-2.694,4.73-5.807,10.281-2.388,15.544a10.526,10.526,0,0,0,8.312,5.026c7.736.5,15.379,3.888,19.247,5.861,7.752,4.11,17.807,5.993,25.794,6.274,9.919,3.866,13.105,16.843,9.049,26.54-6.915,19.421-30.376,28.282-48.724,19.168-9.536-4.676-19.706-5.655-29.938-5.937,1.277-9.347-.563-17.858-7.4-24.662a19.561,19.561,0,0,1-6.577-14.49c-.073-11.18,1.242-33.365,10.868-56.351,4.764-10.623,1.03-23.383-3.68-32.971a3.5,3.5,0,0,0-2.905-1.9c-3.667-2.385-26.946,38.831-34.762,94.408a61.861,61.861,0,0,1-13.171-6.66c.509-4.93.976-7.823,1-7.985a3.5,3.5,0,0,0-6.9-1.165c-.038.226-.27,1.63-.577,4C128.992,92.286,125.611,78.228,124.8,68.955c2.169-13.681,4.2-21.134,4.32-21.925,3.135-25.862-6.284-38.624-6.686-39.155a3.527,3.527,0,0,0-5.271-.352C115.793,8.9,83.887,42.631,98.537,170.389a207.386,207.386,0,0,0,6.928,34.806c-17.96,23.982-16.525,29.227-31.949,45.935a16,16,0,0,1-27.1-6.59c-5.224-18.663-1.808-40.945,9.136-59.6,5.214-8.942,8.754-18.225,12.415-26.842,9.615-20.919,7.292-51.279-8.38-65.166,1.162-3.215,4.009-5.281,8.7-6.274a3.525,3.525,0,0,0,1.684-5.963c-1.072-1.018-26.6-24.9-57.629-23.142a3.5,3.5,0,0,0-3.29,3.2c-.1,1.229-2.184,30.387,25.087,56.056a3.524,3.524,0,0,0,5.858-2.015c.489-2.8,2.994-8.444,9.021-7.306a45.1,45.1,0,0,1-7.6,41.085C15.176,182.22-7.971,231.771,5.744,269.937,19.607,310.41,51.389,326.748,88.409,316.9c-.35,5.172.547,16.89,5.34,16.595H197.614a3.521,3.521,0,0,0,3.5-3.6c-.346-12.66-6.793-19.567-12.875-22.836A25.42,25.42,0,0,0,191.2,303.4a173.907,173.907,0,0,0,45.7,13.04c8.027,7.632,11.654,17.168,23.314,17.054h40.932a3.5,3.5,0,0,0,3.49-3.243c1.723-23.294-16.986-32.568-28.05-34.461a123.891,123.891,0,0,1-10.661-11.194c45.615-24.26,40.31-83.19,58.63-120.459C341.35,133.152,345.232,85.378,322.319,65.7Zm-13.79-27.18a19.806,19.806,0,0,1,13.1,14.1,37.457,37.457,0,0,1-6.351,10.69A33.439,33.439,0,0,0,303.3,46.263,32.22,32.22,0,0,0,308.529,38.523ZM298.182,51.236c2.335,1.429,8.959,6.394,11.392,17.814a63.29,63.29,0,0,1-8.587,6.156,35.408,35.408,0,0,1-5.251-1.11c-.375-9-2.809-14.159-5.206-17.085A87.246,87.246,0,0,0,298.182,51.236Zm20.659-25.79c3.419,4.02,5.078,9.293,4.962,15.691a28.013,28.013,0,0,0-13.222-9.3,30.837,30.837,0,0,0-1-12.835A23.882,23.882,0,0,1,318.841,25.446Zm-16.306,9.31c-1.417,3.43-4.062,6.931-8.4,10.729,2.234-6.054,1.588-13.078-2.8-17.513C296.479,28.54,300.265,30.832,302.535,34.756ZM252.022,98.929c-4.348-2.218-12.985-6.026-21.974-6.609a3.443,3.443,0,0,1-2.993-4.749,56.447,56.447,0,0,1,2.691-5.361c4.7-8.122,11.856-10.286,20.751-11.35,9.593-1.43,23.743-4.069,34.027-10.046,1.565,1.528,4.262,5.629,4.262,15.73a3.5,3.5,0,0,0,1.9,3.112c.643.331,5.872,2.846,16.693,3.055a23.185,23.185,0,0,1-9.467,8.763,3.538,3.538,0,0,0-.182,6.27,15.018,15.018,0,0,1,6.574,9.16c-1.081-.385-9.23-4.794-10.244-4.531a3.53,3.53,0,0,0-1.075.169C290.072,104,267.263,107.251,252.022,98.929Zm65.838,62.405c-20.259,2.548-29.849-12.208-30.309-12.909,5.671-13.8,7.7-26.111-1.68-37.4a59.614,59.614,0,0,0,7.864-1.424l13.178,6.319a3.4,3.4,0,0,0,3.592-.372C317.406,128.4,318.454,146.7,317.86,161.334Zm-12.678,39.2c-26.089,8.468-39.31-8.474-41.853-12.226a46.65,46.65,0,0,1,5.978-9.66,130.748,130.748,0,0,0,14.977-23.042c3.958,5.1,16.413,14.237,31.06,12.98A273.326,273.326,0,0,0,305.182,200.536ZM194.592,32.025c2.283,6.59,3.93,14.224.863,20.979-10.106,24.132-11.488,47.386-11.411,59.1a26.449,26.449,0,0,0,8.649,19.416c5.628,5.516,6.311,12.35,5.3,19.8a103.941,103.941,0,0,0-25.384,4.444c.187-8.642.881-16.085,1.52-21.3a17.4,17.4,0,0,0-6.923-16.034C172.675,75.141,187.769,44.211,194.592,32.025ZM119.175,16.63c2.137,5.215,4.724,14.945,3.018,29.335-19.324,80.966-11.284,195.068,71.005,242.142a119.6,119.6,0,0,1,34.126,19.6c-35.706-7.326-110.005-34.967-121.833-138.117C94.026,69.6,111.813,28.744,119.175,16.63ZM39.807,102.654a14.974,14.974,0,0,0-4.672,5.241C18.809,90.342,16.333,71.7,16.027,64.461c19.466.183,36.686,11.449,44.567,17.523a15.593,15.593,0,0,0-6.67,6.445,37.6,37.6,0,0,0-13.245-5.638,3.5,3.5,0,0,0-3.035,5.9,46.488,46.488,0,0,1,8.522,11.754A13.2,13.2,0,0,0,39.807,102.654Zm61.7,203.018c11.87-8.968,21.468-11.353,21.555-11.374a1.392,1.392,0,0,1,.213-.057l8.157-2.473c4.375-1.4,2.4-7.959-2.031-6.7l-8.065,2.445c-1.26.315-11.484,3.079-24.049,12.572a21.644,21.644,0,0,0-7.039,9.047c-21.482,6.441-59.633,9.305-77.913-41.563-12.754-35.489,9.511-82.516,34.6-114.692A52.051,52.051,0,0,0,51.077,94.8c16.592,10.908,19.8,40.1,10.45,60.544C57.972,163.7,54.47,172.893,49.511,181.4c-11.886,20.265-15.565,44.576-9.839,65.032,4.371,17.046,27.285,22.644,38.978,9.461A142.116,142.116,0,0,0,96.733,231.1a145.533,145.533,0,0,1,11.337-17.749,156.918,156.918,0,0,0,17.745,36.07,62.2,62.2,0,0,0-10.051-1.133,3.5,3.5,0,0,0-.027,7,65.041,65.041,0,0,1,16.421,2.878A146.517,146.517,0,0,0,163.2,287.62c-.732,12.471-14.429,17.258-25.39,20.325a3.5,3.5,0,0,0,.859,6.9c.184,0,18.858-.156,29.713,3.591a10.271,10.271,0,0,1,6.845,8.053H96.287C95.057,322.009,93.407,311.79,101.5,305.672Zm75.955,3.1a3.515,3.515,0,0,0,2.95,2.891c.5.075,11.326,1.845,13.383,14.831H182.275c-1.693-14.23-14.771-16.358-26.974-17.768,6.838-3.509,12.731-9.083,14.333-16.786a160.388,160.388,0,0,0,15.12,8.456,16.243,16.243,0,0,1-5.459,4.691A3.5,3.5,0,0,0,177.459,308.769Zm82.76,17.722a11.228,11.228,0,0,1-8.857-4.309c-8.316-10.536-26.466-29.724-54.754-40.2-62.813-35.273-83.239-117.655-74.342-193.61A55.949,55.949,0,0,0,140,111.923c-4.527,46.433,4.859,112.575,39.67,139.762a3.524,3.524,0,0,0,2.5-5.953c-36.913-37.593-37.506-100.126-35.456-129.275a73.056,73.056,0,0,0,13.537,6.115,10.362,10.362,0,0,1,6.926,11.037c-3.894,20.912-4.025,103.876,36.806,109.527a71.9,71.9,0,0,1-6.951,4.239,17.306,17.306,0,0,0-9.07,14.661,3.5,3.5,0,0,0,7,.23,10.287,10.287,0,0,1,5.379-8.721c5.292-2.833,11.993-7.141,17.129-12.819,2.132-2.7,7.233-7.282,2.931-10.266-3.909-2.185-5.4,2.711-7.574,4.947-32.14,8.744-40.5-51.722-40.24-72.289,17.872-5.754,41.493-7.712,59.365.347a43.044,43.044,0,0,0,40.981-1.96,132.054,132.054,0,0,1-9.081,12.764c-23.742,29.1-4.13,67.686-40.177,97.869a3.514,3.514,0,0,0-.821,6.434c.2.111,20.018,11.308,33.469,27.35a19.423,19.423,0,0,0,9.123,6.088c6.329,1.971,13.733,6.058,15.342,14.481Zm12.455-24.805c2.519,2.125,23.712,2.263,25.065,24.805h-9.891c-1.366-9.9-8.59-17.51-20.325-21.164a12.437,12.437,0,0,1-5.84-3.9,110.646,110.646,0,0,0-11.178-11.407,68.583,68.583,0,0,0,8.735-2.522A131.484,131.484,0,0,0,272.674,301.686Zm20.476-58.771c-11.256,9.2-30.854,2.885-31.176,2.779a3.5,3.5,0,0,0-2.224,6.638c3.424,1.531,19.567,4.251,28.171,1.051-10.512,18.13-25.1,28.124-44.418,30.8-4.942-3.867-9.445-6.9-12.612-8.917,29.133-28.051,21.4-54.76,29.585-79.4,8.063,9.5,24.457,17.572,42.864,12.489C300.864,220.694,297.363,233.385,293.15,242.915Zm37.906-123.161a86.48,86.48,0,0,1-6.307,26.058c-.907-15.453-4.489-31.746-14.107-42.145a22.681,22.681,0,0,0-5.182-8.593,35.022,35.022,0,0,0,10.986-14.793,3.548,3.548,0,0,0-3.823-4.657,60.175,60.175,0,0,0,5.122-4.619C324.588,77.408,333.682,91.424,331.056,119.754Z"/><path fill="#3c3c4f" d="M117.424,280.037a7.821,7.821,0,0,1-7.812-7.813,8.122,8.122,0,0,1,.184-1.738,3.605,3.605,0,0,0-4.238-4.231c-6.941.137-10.5-8.879-5.342-13.511a3.5,3.5,0,0,0,.157-4.948c-5.168-4.632-10.007,6.465-9.627,10.647a14.721,14.721,0,0,0,.949,5.205c-3.353,2.881-6.165,6.738-6.025,11.35a12.979,12.979,0,0,0,12.965,12.964,3.5,3.5,0,0,0,0-7A5.971,5.971,0,0,1,92.67,275c-.105-2.232,1.423-4.075,3.055-5.5a14.767,14.767,0,0,0,6.905,3.464,14.831,14.831,0,0,0,14.794,14.073A3.5,3.5,0,0,0,117.424,280.037Z"/><path fill="#3c3c4f" d="M231.233,204.562a3.5,3.5,0,0,0-3.5-3.5,7.821,7.821,0,0,1-7.812-7.813,8.193,8.193,0,0,1,.184-1.738,3.606,3.606,0,0,0-4.238-4.23c-6.977.084-10.5-8.815-5.343-13.512a3.5,3.5,0,0,0-4.789-5.105A14.886,14.886,0,0,0,202,184.674c-3.354,2.881-6.164,6.738-6.025,11.349a12.98,12.98,0,0,0,12.965,12.965,3.5,3.5,0,1,0,0-7,5.972,5.972,0,0,1-5.965-5.965c-.1-2.231,1.423-4.075,3.054-5.5a14.771,14.771,0,0,0,6.906,3.464,14.831,14.831,0,0,0,14.794,14.072A3.5,3.5,0,0,0,231.233,204.562Z"/><path fill="#3c3c4f" d="M267.712,73.992l-2.549.531a3.506,3.506,0,0,0,.71,6.928,30.7,30.7,0,0,0,3.267-.606A3.5,3.5,0,0,0,267.712,73.992Z"/></svg>