<svg viewBox="0 0 676 676" fill="none" xmlns="http://www.w3.org/2000/svg">
<path d="M397 312L401.309 292.424C401.839 285.837 400.924 279.214 398.628 273.018C396.332 266.822 392.711 261.202 388.018 256.55L386.32 254.866C377.778 246.39 372.946 234.874 372.882 222.841C372.629 183.499 380.156 144.495 395.03 108.073C398.808 99.1136 399.912 89.2532 398.212 79.6805C396.323 68.8014 392.86 58.2552 387.932 48.3738C387.932 48.3738 345.721 67.8616 336.5 183.5C335.616 194.582 327.242 206.893 327 226.5C326.879 236.292 337.299 239.127 338.5 250C340.949 272.163 335.409 302.48 336.5 316.424L365.5 312H397Z" fill="black"/>
<path d="M379.5 594.5C379.5 594.5 376.246 604.209 359.672 612.764C359.672 612.764 391.833 617.104 392.903 656.108H355.314L348 634L308.5 612.764L331 582L323.5 559.5L379.5 594.5Z" fill="black"/>
<path d="M517.5 561.5C527.543 575.152 534.276 583.23 546.796 594.653C546.796 594.653 602.755 602.075 598.757 656.09H565.852L560.5 631L520.5 606.5L489 572.5L517.5 561.5Z" fill="black"/>
<path d="M497.5 478.5C511 489 553.5 496 555 496C555 496 580.5 488 580.5 516L532.852 559.59L491.5 572L449.5 548L488.5 495L497.5 478.5Z" fill="black"/>
<path d="M667.59 194.705C653.935 171.313 662.865 166.949 662.865 166.949C656.048 161.437 643.165 143.247 638.045 141.705C633.974 140.478 629.737 141.103 626.545 141.705C613.54 144.156 614.752 173.452 609.045 180.852C604.31 186.991 604.56 196.313 613.643 210.783C621.921 227.329 583.5 208.283 567.5 217C561.528 220.253 570.5 230.763 575.5 241.5C607.5 228.5 628.5 263 632.5 280.204C633.158 280.459 640.909 299.39 641.545 299.705C650.421 304.189 652.438 277.89 662.11 280.204C665.719 272.463 667.59 264.025 667.59 255.484C667.59 246.942 665.719 238.504 662.11 230.763C675.563 222.305 659.782 208.545 667.59 194.705Z" fill="black"/>
<path d="M24.9226 121.37C72.7535 118.668 114.51 148.941 128.945 160.818C129.461 161.238 129.858 161.785 130.096 162.406C130.334 163.027 130.404 163.699 130.301 164.356C130.197 165.013 129.923 165.631 129.505 166.148C129.087 166.666 128.541 167.064 127.921 167.304C112.073 173.147 109.446 185.765 110.441 196.211C128.659 213.274 135 222.63 139 244C143.375 267.373 134.045 282.931 126.702 303.635C124.38 310.182 122.3 316.045 121 320.5C121 320.5 118 377.718 88.5 383C59 388.282 19.1973 458.387 30 513C39.9962 563.536 70.4038 598.812 121 608.5C156.579 615.313 209.298 586.801 216.237 582.931C216.521 582.746 216.776 582.602 217 582.5C217 582.5 216.738 582.651 216.237 582.931C208.935 587.664 182.5 618.631 182.5 622C182.5 622 98.5 649 37 577C-18.3733 512.173 16.3602 424.104 52.1999 359.215C56.0292 352.282 58.9648 347.765 62.6 341.804C72.7183 325.212 88.4301 305.357 96.5001 278.5C103.963 253.663 108.947 216.969 103.615 212.473C103.205 212.127 102.828 211.809 102.5 211.5C84.7201 202.655 77.2714 213.955 74.3203 221.4C74.0866 221.992 73.7087 222.517 73.221 222.926C72.7333 223.335 72.1512 223.616 71.5275 223.743C70.9037 223.871 70.258 223.84 69.6489 223.655C69.0399 223.47 68.4866 223.135 68.0395 222.682C20.5167 174.49 24.9226 121.37 24.9226 121.37Z" fill="black"/>
<path d="M556.352 50.5012C556.352 50.5012 585.209 56.5474 579.712 82.6549C574.214 108.762 551.139 120.362 551.139 120.362C551.139 120.362 601.728 122.012 611.621 76.392C611.613 76.392 606.541 39.2199 556.352 50.5012Z" fill="black"/>
<path d="M374.5 467C352.5 496.5 343.643 487.097 302.5 391C278 385.5 261.5 370 246.5 346.5C268 543.5 435.381 588.905 435.381 588.905C435.381 588.905 401.972 573.838 393 554.5C387.663 542.998 387.5 522.5 387.5 522.5C379 525 365.867 528.035 415.5 479C408.602 480.576 403.415 477 396.5 475.5C389.585 474 380.126 471.292 374.5 467Z" fill="black"/>
<path d="M640.846 130.627C676.861 81.7165 652.738 23.6183 599.99 19.6696C598.489 19.5879 597.003 19.9921 595.75 20.8222C594.498 21.6522 593.546 22.8639 593.037 24.2775C592.528 25.6911 592.488 27.2312 592.923 28.6693C593.358 30.1075 594.245 31.3671 595.453 32.2611C598.603 34.6898 600.951 38.0083 602.193 41.7868C602.999 44.7522 603.58 47.7743 603.931 50.8273C594.655 43.4092 579.457 38.1781 554.821 43.7173C553.293 44.0885 551.935 44.9642 550.966 46.2029C549.998 47.4417 549.475 48.9709 549.483 50.5434C549.492 52.1159 550.03 53.6395 551.012 54.868C551.993 56.0965 553.361 56.9579 554.893 57.3129C592.763 67.3813 563.172 107.218 548.208 114.033C530.618 121.577 511.714 124.613 495.852 127.142C474.246 129.428 455.789 137.033 444.705 156.542C439.348 165.946 433.159 176.983 439.957 187.447C441.706 190.317 444.122 192.724 446.998 194.464C449.875 196.203 453.128 197.224 456.483 197.44C471.864 198.434 487.06 205.17 494.751 209.093C510.163 217.264 530.155 221.008 546.035 221.567C565.756 229.253 572.091 255.055 564.027 274.335C550.278 312.948 503.632 330.566 467.152 312.445C448.192 303.148 427.972 301.202 407.628 300.641C410.167 282.057 406.509 265.135 392.915 251.607C388.838 247.99 385.568 243.555 383.315 238.592C381.062 233.629 379.878 228.248 379.838 222.798C379.693 200.569 382.308 156.46 401.447 110.759C410.919 89.6376 403.495 64.2677 394.13 45.2045C393.579 44.1269 392.756 43.2117 391.743 42.5492C390.73 41.8867 389.562 41.4999 388.354 41.4269C381.063 36.6849 334.779 118.632 319.239 229.132C310.013 225.779 301.221 221.334 293.052 215.891C294.064 206.089 294.993 200.337 295.04 200.014C295.296 198.218 294.84 196.393 293.769 194.928C292.699 193.463 291.098 192.474 289.309 192.172C287.52 191.87 285.684 192.279 284.192 193.311C282.7 194.343 281.67 195.918 281.321 197.698C281.246 198.148 280.785 200.939 280.174 205.651C256.466 183.486 249.744 155.536 248.132 137.099C252.444 109.898 256.482 95.0794 256.721 93.5067C262.954 42.087 244.227 16.7131 243.428 15.6574C242.821 14.8716 242.054 14.2236 241.178 13.7564C240.301 13.2892 239.336 13.0134 238.345 12.9473C237.355 12.8811 236.361 13.0261 235.431 13.3726C234.5 13.7192 233.654 14.2594 232.948 14.9575C230.224 17.6953 166.787 84.7605 195.915 338.773C198.521 362.192 203.129 385.344 209.689 407.976C173.981 455.658 176.834 466.086 146.167 499.306C142.316 503.432 137.436 506.459 132.028 508.076C126.62 509.694 120.88 509.843 115.395 508.51C109.911 507.176 104.88 504.407 100.819 500.487C96.7576 496.567 93.8126 491.637 92.286 486.203C81.8994 449.097 88.6912 404.795 110.45 367.704C120.817 349.925 127.856 331.469 135.134 314.336C154.251 272.744 149.633 212.381 118.473 184.771C120.783 178.379 126.444 174.271 135.771 172.297C137.001 172.019 138.134 171.414 139.05 170.546C139.965 169.678 140.629 168.579 140.972 167.365C141.315 166.151 141.324 164.867 140.998 163.648C140.671 162.429 140.022 161.321 139.119 160.441C136.987 158.417 86.2318 110.934 24.5388 114.429C22.865 114.524 21.2816 115.219 20.0798 116.388C18.878 117.557 18.1386 119.121 17.9975 120.791C17.7987 123.235 13.6552 181.208 67.8764 232.244C68.8058 233.097 69.9483 233.683 71.1831 233.94C72.4179 234.197 73.6993 234.117 74.8921 233.706C76.0848 233.296 77.1447 232.571 77.9599 231.609C78.7751 230.646 79.3153 229.482 79.5235 228.238C80.4957 222.67 85.4763 211.449 97.4593 213.711C101.716 227.536 102.565 242.186 99.9342 256.41C97.3029 270.634 91.2695 284.011 82.3488 295.398C30.1735 362.296 -15.8482 460.815 11.4204 536.698C38.9834 617.168 102.173 649.652 175.778 630.072C175.082 640.355 176.865 663.653 186.395 663.067H392.903C393.832 663.061 394.751 662.871 395.606 662.507C396.461 662.143 397.235 661.612 397.883 660.946C398.53 660.28 399.039 659.491 399.379 658.626C399.719 657.762 399.883 656.838 399.862 655.909C399.174 630.738 386.356 617.005 374.263 610.506C376.447 608.268 378.417 605.832 380.151 603.231C409.109 615.99 439.682 624.714 471.013 629.157C486.973 644.331 494.184 663.291 517.367 663.065H598.749C600.506 663.064 602.198 662.399 603.485 661.203C604.772 660.007 605.559 658.369 605.688 656.617C609.114 610.303 571.916 591.864 549.918 588.1C542.396 581.13 535.317 573.697 528.721 565.844C619.415 517.609 608.867 400.443 645.292 326.343C678.684 264.738 686.403 169.752 640.846 130.627ZM613.428 76.5868C619.795 78.6599 625.528 82.3222 630.085 87.2275C634.643 92.1328 637.874 98.1192 639.474 104.621C636.479 112.36 632.211 119.543 626.847 125.875C622.721 112.33 614.377 100.455 603.032 91.9817C607.226 87.3843 610.729 82.2002 613.428 76.5928V76.5868ZM592.856 101.869C597.499 104.71 610.669 114.582 615.506 137.288C610.166 141.836 604.455 145.93 598.433 149.527C594.902 149.057 591.412 148.319 587.993 147.32C587.247 129.426 582.408 119.169 577.642 113.351C582.92 109.806 587.999 105.973 592.856 101.869ZM633.931 50.5926C640.729 58.5854 644.027 69.0693 643.797 81.7901C637.041 73.1772 627.898 66.7458 617.508 63.2995C618.648 54.748 617.971 46.0522 615.52 37.7805C622.592 40.5196 628.905 44.9129 633.931 50.5926ZM601.511 69.1031C598.693 75.9228 593.435 82.8836 584.81 90.4349C589.251 78.3981 587.967 64.4328 579.243 55.6149C589.47 56.7442 596.998 61.3013 601.511 69.1031ZM501.079 196.694C492.434 192.284 475.262 184.713 457.39 183.554C456.299 183.493 455.238 183.173 454.297 182.619C453.355 182.065 452.56 181.293 451.977 180.369C451.395 179.444 451.042 178.394 450.948 177.306C450.854 176.217 451.023 175.122 451.439 174.112C453.032 170.466 454.818 166.908 456.789 163.453C466.134 147.304 480.362 143.002 498.047 140.886C517.12 138.043 545.254 132.796 565.701 120.913C568.812 123.951 574.175 132.104 574.175 152.188C574.175 153.466 574.528 154.72 575.194 155.812C575.861 156.903 576.815 157.79 577.952 158.375C579.231 159.033 589.627 164.033 611.142 164.449C606.642 171.92 600.115 177.962 592.319 181.872C591.163 182.433 590.183 183.301 589.485 184.381C588.787 185.46 588.398 186.71 588.361 187.995C588.324 189.28 588.639 190.551 589.273 191.669C589.907 192.787 590.836 193.71 591.957 194.338C598.514 198.481 603.202 205.012 605.028 212.55C602.879 211.785 586.677 203.019 584.661 203.542C583.935 203.542 583.214 203.656 582.523 203.878C576.731 206.776 531.382 213.24 501.079 196.694ZM631.98 320.77C591.701 325.836 572.634 296.498 571.719 295.104C582.994 267.666 587.029 243.189 568.379 220.744C573.648 220.151 578.872 219.205 584.014 217.913L610.215 230.476C611.355 231.036 612.629 231.264 613.893 231.133C615.156 231.002 616.356 230.518 617.357 229.737C631.078 255.289 633.161 291.674 631.98 320.77ZM606.774 398.709C554.903 415.545 528.616 381.86 523.56 374.401C526.725 367.538 530.716 361.088 535.446 355.194C546.953 341.012 556.934 325.656 565.224 309.381C573.093 319.521 597.856 337.688 626.978 335.189C618.95 355.93 612.202 377.145 606.774 398.713V398.709ZM386.895 63.6733C391.434 76.7757 394.708 91.9539 388.611 105.384C368.517 153.365 365.77 199.599 365.923 222.889C365.963 230.163 367.513 237.35 370.472 243.994C373.432 250.639 377.739 256.597 383.119 261.493C394.309 272.46 395.667 286.047 393.657 300.86C376.532 301.7 359.579 304.668 343.187 309.696C343.559 292.513 344.939 277.715 346.209 267.346C346.928 261.291 346.034 255.153 343.617 249.554C341.199 243.956 337.345 239.096 332.445 235.467C343.319 149.398 373.329 87.9019 386.895 63.6733ZM236.948 33.0644C241.197 43.433 246.34 62.7785 242.948 91.3893C204.528 252.369 220.513 479.23 384.123 572.824C408.737 581.979 431.664 595.147 451.974 611.794C380.982 597.228 233.258 542.271 209.741 337.185C186.946 138.381 222.311 57.1498 236.948 33.0644ZM79.1457 204.1C75.2673 206.789 72.0834 210.36 69.8567 214.521C37.3967 179.621 32.4739 142.556 31.8655 128.164C70.5685 128.527 104.806 150.927 120.475 163.003C114.857 165.831 110.232 170.3 107.214 175.818C99.2394 170.42 90.2975 166.614 80.8794 164.608C79.4386 164.389 77.9654 164.628 76.6677 165.292C75.3701 165.955 74.3134 167.009 73.6467 168.305C72.9801 169.601 72.7371 171.073 72.9522 172.515C73.1672 173.956 73.8293 175.294 74.8452 176.339C81.6821 183.193 87.3997 191.079 91.7889 199.708C87.2657 200.055 82.9097 201.568 79.1457 204.1ZM201.82 607.748C225.42 589.917 244.503 585.175 244.676 585.134C244.814 585.085 244.956 585.047 245.1 585.02L261.318 580.103C270.016 577.32 266.09 564.279 257.28 566.782L241.245 571.644C238.739 572.27 218.412 577.765 193.429 596.64C187.233 601.269 182.398 607.483 179.434 614.627C136.723 627.433 60.8698 633.128 24.5249 531.99C-0.833052 461.43 43.435 367.929 93.3179 303.955C106.042 287.721 113.624 268.054 115.091 247.479C116.558 226.905 111.844 206.361 101.553 188.485C134.542 210.172 140.92 268.213 122.33 308.86C115.262 325.474 108.299 343.752 98.4395 360.666C74.8074 400.957 67.4927 449.294 78.8773 489.965C87.5679 523.856 133.126 534.986 156.375 508.776C170.103 493.69 182.158 477.162 192.328 459.481C198.979 447.189 206.513 435.395 214.869 424.192C223.506 449.511 235.363 473.614 250.15 495.908C243.561 494.616 236.877 493.862 230.166 493.655C228.321 493.648 226.548 494.374 225.238 495.674C223.928 496.974 223.188 498.741 223.18 500.587C223.173 502.433 223.9 504.205 225.2 505.515C226.5 506.826 228.267 507.566 230.112 507.573C241.196 508.072 252.169 509.995 262.761 513.295C280.357 535.731 301.152 555.461 324.48 571.856C323.025 596.652 295.792 606.169 273.999 612.267C272.341 612.672 270.89 613.672 269.921 615.077C268.952 616.482 268.533 618.194 268.744 619.887C268.955 621.581 269.78 623.138 271.064 624.262C272.348 625.387 274 626 275.707 625.986C276.072 625.986 313.201 625.676 334.783 633.126C338.29 634.311 341.408 636.426 343.805 639.246C346.202 642.067 347.788 645.485 348.393 649.137H191.441C188.996 640.23 185.715 619.912 201.806 607.748H201.82ZM352.836 613.911C353.082 615.366 353.782 616.705 354.836 617.738C355.889 618.77 357.242 619.443 358.702 619.659C359.696 619.809 381.22 623.328 385.31 649.147H362.406C359.04 620.854 333.037 616.623 308.775 613.82C322.37 606.843 334.087 595.761 337.272 580.445C346.983 586.587 357.018 592.199 367.334 597.258C364.46 601.139 360.751 604.327 356.481 606.585C355.177 607.263 354.122 608.337 353.466 609.652C352.81 610.967 352.588 612.456 352.83 613.905L352.836 613.911ZM517.383 649.147C513.989 649.151 510.64 648.382 507.588 646.897C504.537 645.413 501.864 643.252 499.773 640.58C483.239 619.632 447.152 581.481 390.909 560.653C266.022 490.522 225.41 326.727 243.1 175.71C250.454 194.187 262.628 210.355 278.353 222.529C269.352 314.849 288.014 446.355 357.226 500.409C358.588 500.389 359.915 499.972 361.043 499.209C362.172 498.447 363.054 497.372 363.581 496.116C364.109 494.86 364.259 493.478 364.013 492.138C363.767 490.799 363.136 489.56 362.197 488.573C288.805 413.829 287.626 289.499 291.702 231.544C300.237 236.501 309.255 240.574 318.617 243.702C323.077 245.232 326.877 248.245 329.383 252.239C331.889 256.232 332.949 260.965 332.387 265.646C324.645 307.224 324.385 472.176 405.566 483.412C401.122 486.48 396.508 489.294 391.746 491.84C386.455 494.699 382.005 498.895 378.841 504.009C375.677 509.124 373.909 514.978 373.713 520.989C373.652 522.835 374.327 524.629 375.589 525.977C376.851 527.325 378.597 528.116 380.443 528.177C382.288 528.237 384.083 527.562 385.43 526.3C386.778 525.038 387.57 523.292 387.63 521.447C387.742 517.874 388.789 514.393 390.665 511.351C392.542 508.308 395.183 505.811 398.325 504.107C408.847 498.474 422.17 489.909 432.382 478.62C436.62 473.252 446.762 464.142 438.209 458.209C430.437 453.864 427.473 463.599 423.15 468.045C359.248 485.43 342.627 365.209 343.144 324.317C378.677 312.877 425.641 308.984 461.175 325.007C474.008 331.19 488.181 334.071 502.409 333.391C516.638 332.71 530.471 328.489 542.655 321.11C537.144 329.919 531.115 338.393 524.6 346.488C477.395 404.345 516.389 481.064 444.719 541.074C443.389 541.44 442.198 542.191 441.294 543.232C440.39 544.273 439.815 545.559 439.64 546.927C439.466 548.294 439.7 549.683 440.313 550.918C440.926 552.153 441.891 553.179 443.086 553.867C443.484 554.087 482.887 576.35 509.63 608.245C514.388 613.939 520.686 618.141 527.769 620.349C540.353 624.268 555.074 632.394 558.273 649.141L517.383 649.147ZM542.146 599.829C547.154 604.054 589.291 604.328 591.981 649.147H572.316C569.6 629.463 555.237 614.333 531.905 607.068C527.37 605.652 523.339 602.96 520.293 599.314C513.441 591.228 506.014 583.649 498.069 576.634C503.962 575.349 509.764 573.673 515.436 571.62C523.626 581.67 532.552 591.097 542.14 599.823L542.146 599.829ZM582.857 482.978C560.478 501.27 521.512 488.714 520.872 488.503C519.122 487.917 517.21 488.05 515.558 488.873C513.906 489.696 512.648 491.141 512.062 492.892C511.476 494.642 511.609 496.553 512.432 498.205C513.254 499.857 514.7 501.115 516.45 501.701C523.258 504.745 555.354 510.153 572.461 503.791C551.56 539.838 522.556 559.708 484.147 565.029C474.321 557.34 465.368 551.31 459.072 547.3C516.995 491.528 501.62 438.424 517.894 389.434C533.925 408.322 566.52 424.371 603.117 414.265C598.188 438.792 591.228 464.024 582.851 482.972L582.857 482.978ZM658.223 238.105C656.762 255.922 652.531 273.402 645.683 289.915C643.88 259.19 636.758 226.796 617.635 206.12C615.52 199.728 611.999 193.89 607.332 189.035C617.108 181.357 624.65 171.201 629.175 159.623C629.56 158.488 629.649 157.273 629.434 156.094C629.22 154.914 628.708 153.809 627.947 152.882C627.186 151.956 626.202 151.238 625.087 150.798C623.972 150.357 622.763 150.208 621.574 150.364C625.141 147.5 628.542 144.434 631.758 141.181C645.357 153.905 663.438 181.772 658.217 238.099L658.223 238.105Z" fill="black"/>
<path d="M233.467 556.779C229.348 556.775 225.4 555.137 222.488 552.224C219.576 549.312 217.939 545.364 217.934 541.245C217.932 540.084 218.054 538.925 218.3 537.79C218.527 536.635 218.466 535.442 218.123 534.317C217.779 533.191 217.164 532.168 216.331 531.336C215.498 530.505 214.474 529.891 213.347 529.549C212.221 529.208 211.028 529.149 209.874 529.378C196.074 529.65 188.998 511.724 199.253 502.515C199.92 501.889 200.456 501.139 200.833 500.306C201.209 499.473 201.418 498.574 201.447 497.66C201.476 496.747 201.325 495.836 201.002 494.981C200.679 494.126 200.191 493.343 199.565 492.677C189.29 483.467 179.669 505.531 180.424 513.845C180.423 517.381 181.062 520.887 182.311 524.194C175.645 529.922 170.054 537.591 170.332 546.761C170.34 553.595 173.058 560.147 177.891 564.979C182.724 569.811 189.276 572.529 196.11 572.536C197.955 572.536 199.725 571.803 201.03 570.498C202.335 569.193 203.068 567.423 203.068 565.577C203.068 563.732 202.335 561.962 201.03 560.657C199.725 559.352 197.955 558.619 196.11 558.619C192.966 558.615 189.952 557.366 187.729 555.144C185.506 552.921 184.254 549.908 184.25 546.765C184.041 542.327 187.079 538.663 190.324 535.829C194.208 539.303 198.946 541.68 204.053 542.717C204.439 550.26 207.705 557.368 213.178 562.575C218.651 567.781 225.913 570.688 233.467 570.697C235.312 570.697 237.082 569.964 238.387 568.659C239.692 567.354 240.425 565.584 240.425 563.738C240.425 561.893 239.692 560.123 238.387 558.818C237.082 557.513 235.312 556.779 233.467 556.779V556.779Z" fill="black"/>
<path d="M459.746 406.717C459.746 404.872 459.012 403.102 457.707 401.797C456.402 400.492 454.632 399.759 452.787 399.759C448.668 399.754 444.72 398.116 441.808 395.203C438.897 392.291 437.259 388.343 437.255 384.224C437.253 383.063 437.376 381.904 437.62 380.769C437.846 379.614 437.785 378.422 437.441 377.297C437.097 376.172 436.482 375.149 435.649 374.318C434.817 373.487 433.792 372.873 432.667 372.532C431.541 372.19 430.348 372.131 429.194 372.359C415.322 372.526 408.318 354.832 418.571 345.494C419.897 344.226 420.668 342.486 420.718 340.653C420.768 338.82 420.092 337.041 418.837 335.703C417.582 334.365 415.85 333.577 414.017 333.51C412.184 333.443 410.399 334.102 409.05 335.344C404.823 339.334 401.864 344.481 400.544 350.141C399.223 355.802 399.599 361.727 401.623 367.175C394.955 372.903 389.368 380.572 389.644 389.74C389.652 396.574 392.371 403.126 397.203 407.959C402.036 412.791 408.588 415.509 415.422 415.517C417.267 415.517 419.037 414.784 420.342 413.479C421.647 412.174 422.381 410.404 422.381 408.559C422.381 406.713 421.647 404.943 420.342 403.638C419.037 402.333 417.267 401.6 415.422 401.6C412.278 401.596 409.263 400.345 407.04 398.122C404.816 395.899 403.566 392.884 403.562 389.74C403.363 385.304 406.391 381.638 409.634 378.805C413.519 382.278 418.258 384.655 423.365 385.692C423.751 393.235 427.018 400.343 432.491 405.548C437.964 410.754 445.225 413.661 452.779 413.67C453.693 413.671 454.598 413.492 455.443 413.143C456.288 412.795 457.055 412.283 457.702 411.637C458.349 410.991 458.863 410.225 459.213 409.38C459.564 408.536 459.745 407.631 459.746 406.717V406.717Z" fill="black"/>
<path d="M532.274 147.114L527.206 148.169C525.539 148.54 524.066 149.51 523.066 150.896C522.067 152.281 521.611 153.985 521.785 155.684C521.96 157.384 522.752 158.96 524.011 160.114C525.271 161.268 526.91 161.919 528.618 161.944C530.803 161.66 532.972 161.257 535.114 160.739C536.92 160.362 538.504 159.284 539.515 157.74C540.527 156.196 540.883 154.313 540.507 152.507C540.13 150.7 539.051 149.116 537.507 148.105C535.964 147.094 534.081 146.737 532.274 147.114V147.114Z" fill="black"/>
</svg>
